# xmcd
#
# Track frame offsets: 
#        150
#        14817
#        28880
#        43020
#        55895
#        70547
#        85812
#        100010
#        113637
#        128854
#        142767
#        156589
#        170237
#        183829
#        197037
#        208779
#        220972
#        233930
#        248792
#        263932
#        277268
#        289271
#        302379
#        316081
#
# Disc length: 4395 seconds
#
# Revision: 1
# Processed by: cddbd v1.5.2PL0 Copyright (c) Steve Scherf et al.
# Submitted via: ExactAudioCopy v0.99pb5
#
DISCID=67112918
DTITLE=Various Artist - Louis Armstrong 1924
DYEAR=2009
DGENRE=Jazz
TTITLE0=Fletcher Henderson and his Orchestra - Manda
TTITLE1=Fletcher Henderson and his Orchestra - Go Long, Mule
TTITLE2=Fletcher Henderson and his Orchestra - Tell Me, Dreamy Eyes
TTITLE3=Fletcher Henderson and his Orchestra - My Rose Marir
TTITLE4=Fletcher Henderson and his Orchestra - Don't Forget, You'll Re
TTITLE4=gret Day By Day
TTITLE5=Fletcher Henderson and his Orchestra - Shanghai Shuffle
TTITLE6=Clarence Williams' Blue Five - Texas Moaner Blues
TTITLE7=Clarence Williams' Blue Five - Early In The Morning
TTITLE8=Clarence Williams' Blue Five - You've Got The Right Key But Th
TTITLE8=e Wrong Keyhole
TTITLE9=Fletcher Henderson and his Orchestra - Words
TTITLE10=Fletcher Henderson and his Orchestra - Words
TTITLE11=Fletcher Henderson and his Orchestra - Copenhagen
TTITLE12=Fletcher Henderson and his Orchestra - Copenhagen
TTITLE13=Clarence Williams' Blue Five - Of All The Wrongs You've Done 
TTITLE13=To Me
TTITLE14=Clarence Williams' Blue Five - Everybody Loves My Baby
TTITLE15=Josephine Beatty acc. by Red Onion Jazz Babies - Everybody Lo
TTITLE15=ves My Baby
TTITLE16=Fletcher Henderson and his Orchestra - Shanghai Shuffle
TTITLE17=Fletcher Henderson and his Orchestra - Naughty Man
TTITLE18=Fletcher Henderson and his Orchestra - Naughty Man
TTITLE19=Josephine Beatty acc. by Red Onion Jazz Babies - Texas Moaner
TTITLE19=Blues
TTITLE20=Josephine Beatty acc. by Red Onion Jazz Babies - Of All The W
TTITLE20=rongs You've Done To Me
TTITLE21=Fletcher Henderson - One Of These Days
TTITLE22=Fletcher Henderson - My Dream Man
TTITLE23=Fletcher Henderson - My Dream Man
EXTD=YEAR: 1924
EXTT0=
EXTT1=
EXTT2=
EXTT3=
EXTT4=
EXTT5=
EXTT6=
EXTT7=
EXTT8=
EXTT9=
EXTT10=
EXTT11=
EXTT12=
EXTT13=
EXTT14=
EXTT15=
EXTT16=
EXTT17=
EXTT18=
EXTT19=
EXTT20=
EXTT21=
EXTT22=
EXTT23=
PLAYORDER=
